<mxfile host="app.diagrams.net" modified="2023-10-24T16:15:10.527Z" agent="Mozilla/5.0 (Windows NT 10.0; Win64; x64) AppleWebKit/537.36 (KHTML, like Gecko) Chrome/117.0.0.0 Safari/537.36 Edg/117.0.2045.60" etag="a-UHbfDRNWuldwNvI9Uu" version="22.0.6" type="device">
  <diagram name="Страница 1" id="eSsKNLbXoTSxbLVhWffr">
    <mxGraphModel dx="802" dy="438" grid="1" gridSize="10" guides="1" tooltips="1" connect="1" arrows="1" fold="1" page="1" pageScale="1" pageWidth="827" pageHeight="1169" math="0" shadow="0">
      <root>
        <mxCell id="0" />
        <mxCell id="1" parent="0" />
        <mxCell id="w-T5Mh0VMQ3qD1ihSoh7-2" value="" style="edgeStyle=orthogonalEdgeStyle;rounded=0;orthogonalLoop=1;jettySize=auto;html=1;" edge="1" parent="1" source="pX3DX4Q6j4a-XVMVdGeO-2" target="w-T5Mh0VMQ3qD1ihSoh7-1">
          <mxGeometry relative="1" as="geometry" />
        </mxCell>
        <mxCell id="pX3DX4Q6j4a-XVMVdGeO-2" value="Начало" style="rounded=1;whiteSpace=wrap;html=1;" parent="1" vertex="1">
          <mxGeometry x="359.5" y="40" width="120" height="30" as="geometry" />
        </mxCell>
        <mxCell id="pX3DX4Q6j4a-XVMVdGeO-6" value="" style="edgeStyle=orthogonalEdgeStyle;rounded=0;orthogonalLoop=1;jettySize=auto;html=1;" parent="1" source="pX3DX4Q6j4a-XVMVdGeO-7" target="pX3DX4Q6j4a-XVMVdGeO-8" edge="1">
          <mxGeometry relative="1" as="geometry" />
        </mxCell>
        <mxCell id="pX3DX4Q6j4a-XVMVdGeO-7" value="result" style="shape=document;whiteSpace=wrap;html=1;boundedLbl=1;" parent="1" vertex="1">
          <mxGeometry x="219.5" y="260.65" width="120" height="40" as="geometry" />
        </mxCell>
        <mxCell id="pX3DX4Q6j4a-XVMVdGeO-8" value="Конец" style="rounded=1;whiteSpace=wrap;html=1;" parent="1" vertex="1">
          <mxGeometry x="219.5" y="340.65" width="120" height="30" as="geometry" />
        </mxCell>
        <mxCell id="pX3DX4Q6j4a-XVMVdGeO-9" value="No" style="edgeStyle=orthogonalEdgeStyle;rounded=0;orthogonalLoop=1;jettySize=auto;html=1;" parent="1" source="pX3DX4Q6j4a-XVMVdGeO-11" target="pX3DX4Q6j4a-XVMVdGeO-7" edge="1">
          <mxGeometry relative="1" as="geometry" />
        </mxCell>
        <mxCell id="pX3DX4Q6j4a-XVMVdGeO-10" value="Yes" style="edgeStyle=orthogonalEdgeStyle;rounded=0;orthogonalLoop=1;jettySize=auto;html=1;" parent="1" source="pX3DX4Q6j4a-XVMVdGeO-11" edge="1">
          <mxGeometry relative="1" as="geometry">
            <mxPoint x="500" y="280.65" as="targetPoint" />
          </mxGeometry>
        </mxCell>
        <mxCell id="pX3DX4Q6j4a-XVMVdGeO-11" value="index &amp;lt; size" style="rhombus;whiteSpace=wrap;html=1;" parent="1" vertex="1">
          <mxGeometry x="379.5" y="240.65" width="80" height="80" as="geometry" />
        </mxCell>
        <mxCell id="pX3DX4Q6j4a-XVMVdGeO-14" value="" style="endArrow=classic;html=1;rounded=0;entryX=0.5;entryY=1;entryDx=0;entryDy=0;" parent="1" edge="1">
          <mxGeometry width="50" height="50" relative="1" as="geometry">
            <mxPoint x="420" y="370" as="sourcePoint" />
            <mxPoint x="419.5" y="321.65" as="targetPoint" />
          </mxGeometry>
        </mxCell>
        <mxCell id="w-T5Mh0VMQ3qD1ihSoh7-3" value="" style="edgeStyle=orthogonalEdgeStyle;rounded=0;orthogonalLoop=1;jettySize=auto;html=1;" edge="1" parent="1" source="w-T5Mh0VMQ3qD1ihSoh7-1" target="pX3DX4Q6j4a-XVMVdGeO-11">
          <mxGeometry relative="1" as="geometry" />
        </mxCell>
        <mxCell id="w-T5Mh0VMQ3qD1ihSoh7-1" value="size = 10&lt;br&gt;array = [&quot;one&quot;, &quot;two&quot;, &quot;three&quot;, &quot;four, &quot;five&quot;, &quot;six&quot;, &quot;seven&quot;, &quot;eight&quot;, &quot;nine&quot;, &quot;ten&quot;]&lt;br&gt;index = 0&lt;br&gt;maxLen = 3&lt;br&gt;result = []" style="rounded=0;whiteSpace=wrap;html=1;" vertex="1" parent="1">
          <mxGeometry x="210" y="110" width="420" height="90" as="geometry" />
        </mxCell>
        <mxCell id="w-T5Mh0VMQ3qD1ihSoh7-9" value="result.append(array[index])" style="rounded=0;whiteSpace=wrap;html=1;" vertex="1" parent="1">
          <mxGeometry x="750" y="257.5" width="160" height="45" as="geometry" />
        </mxCell>
        <mxCell id="w-T5Mh0VMQ3qD1ihSoh7-10" value="Yes" style="edgeStyle=orthogonalEdgeStyle;rounded=0;orthogonalLoop=1;jettySize=auto;html=1;" edge="1" parent="1" source="w-T5Mh0VMQ3qD1ihSoh7-11" target="w-T5Mh0VMQ3qD1ihSoh7-9">
          <mxGeometry relative="1" as="geometry" />
        </mxCell>
        <mxCell id="w-T5Mh0VMQ3qD1ihSoh7-18" value="" style="edgeStyle=orthogonalEdgeStyle;rounded=0;orthogonalLoop=1;jettySize=auto;html=1;" edge="1" parent="1" source="w-T5Mh0VMQ3qD1ihSoh7-11" target="w-T5Mh0VMQ3qD1ihSoh7-15">
          <mxGeometry relative="1" as="geometry" />
        </mxCell>
        <mxCell id="w-T5Mh0VMQ3qD1ihSoh7-21" value="No" style="edgeLabel;html=1;align=center;verticalAlign=middle;resizable=0;points=[];" vertex="1" connectable="0" parent="w-T5Mh0VMQ3qD1ihSoh7-18">
          <mxGeometry x="-0.7964" y="-1" relative="1" as="geometry">
            <mxPoint x="1" y="17" as="offset" />
          </mxGeometry>
        </mxCell>
        <mxCell id="w-T5Mh0VMQ3qD1ihSoh7-11" value="array[index].length &amp;lt;= maxLen" style="rhombus;whiteSpace=wrap;html=1;" vertex="1" parent="1">
          <mxGeometry x="500" y="240" width="210" height="80" as="geometry" />
        </mxCell>
        <mxCell id="w-T5Mh0VMQ3qD1ihSoh7-12" value="" style="endArrow=none;html=1;rounded=0;entryX=0.5;entryY=1;entryDx=0;entryDy=0;" edge="1" parent="1" target="w-T5Mh0VMQ3qD1ihSoh7-9">
          <mxGeometry width="50" height="50" relative="1" as="geometry">
            <mxPoint x="830" y="370" as="sourcePoint" />
            <mxPoint x="560.5" y="310" as="targetPoint" />
          </mxGeometry>
        </mxCell>
        <mxCell id="w-T5Mh0VMQ3qD1ihSoh7-15" value="index = index + 1" style="rounded=0;whiteSpace=wrap;html=1;" vertex="1" parent="1">
          <mxGeometry x="545" y="360" width="120" height="19.35" as="geometry" />
        </mxCell>
        <mxCell id="w-T5Mh0VMQ3qD1ihSoh7-16" value="" style="endArrow=classic;html=1;rounded=0;entryX=1;entryY=0.5;entryDx=0;entryDy=0;" edge="1" parent="1" target="w-T5Mh0VMQ3qD1ihSoh7-15">
          <mxGeometry width="50" height="50" relative="1" as="geometry">
            <mxPoint x="830" y="370" as="sourcePoint" />
            <mxPoint x="670" y="350" as="targetPoint" />
          </mxGeometry>
        </mxCell>
        <mxCell id="w-T5Mh0VMQ3qD1ihSoh7-20" value="" style="endArrow=none;html=1;rounded=0;" edge="1" parent="1">
          <mxGeometry width="50" height="50" relative="1" as="geometry">
            <mxPoint x="420" y="369.35" as="sourcePoint" />
            <mxPoint x="545" y="369.35" as="targetPoint" />
          </mxGeometry>
        </mxCell>
      </root>
    </mxGraphModel>
  </diagram>
</mxfile>
